<?xml version="1.0" encoding="UTF-8"?>
<svg id="Layer_2" data-name="Layer 2" xmlns="http://www.w3.org/2000/svg" viewBox="0 0 97.71 97.71">
  <defs>
    <style>
      .cls-1 {
        stroke: #232136;
        stroke-miterlimit: 10;
        stroke-width: 5px;
      }

      .cls-1, .cls-2 {
        /* {# rcol(data.color.text) #} */
        fill: #eceff4;
      }

      .cls-3 {
        /* {# rcol(data.color.overlay) #} */
        fill: #4c566a;
      }
    </style>
  </defs>
  <path class="cls-2" d="M72.49,81.29h0c-.78-1.81-.13-3.91,1.53-4.96,5.1-3.25,14.94-11.54,14.94-27.19s-10.03-24.4-15.11-27.8c-1.62-1.09-2.19-3.21-1.37-4.99h0c1.04-2.24,3.82-3,5.86-1.63,6.52,4.36,18.61,15.05,18.61,34.43s-12.08,29.73-18.64,33.92c-2.08,1.33-4.85.5-5.83-1.77Z"/>
  <path class="cls-2" d="M64.83,70.18h0c-.75-1.73-.18-3.74,1.35-4.84,3.29-2.37,8.37-7.45,8.37-16.31s-5.17-14.24-8.49-16.71c-1.52-1.13-2.04-3.17-1.24-4.89h0c1.08-2.3,3.99-3.02,6.02-1.5,4.7,3.51,11.71,10.8,11.71,23.11s-6.99,19.41-11.72,22.8c-2.08,1.49-4.99.69-6-1.65Z"/>
  <path class="cls-2" d="M58.99,57.34h0c-.6-1.4-.38-3.03.61-4.17.75-.86,1.44-2.14,1.44-3.95s-.74-3.22-1.53-4.13c-1.02-1.17-1.2-2.85-.54-4.26h0c1.21-2.58,4.7-3.14,6.57-.99s3.5,5.32,3.5,9.38-1.48,6.94-3.31,9.09c-1.93,2.27-5.56,1.76-6.74-.97Z"/>
  <path class="cls-2" d="M5.77,65.92h7.84v-33.76h-7.84c-2.77,0-5.02,2.25-5.02,5.02v23.72c0,2.77,2.25,5.02,5.02,5.02Z"/>
  <path class="cls-2" d="M49,9.41c-.8-.84-1.91-1.32-3.07-1.32s-2.21.45-3,1.24l-25.11,25.11v29.37l25.11,25.11c.8.8,1.88,1.24,3,1.24s2.27-.48,3.07-1.32c1.36-1.42,2.11-3.31,2.11-5.27V14.69c0-1.96-.76-3.85-2.11-5.27Z"/>
  <g>
    <line class="cls-1" x1="6.17" y1="91.54" x2="91.54" y2="6.17"/>
    <g>
      <path class="cls-2" d="M9,95.21c-1.74,0-3.37-.68-4.6-1.9-1.23-1.23-1.9-2.86-1.9-4.6s.68-3.37,1.9-4.6L84.12,4.4c1.23-1.23,2.86-1.9,4.6-1.9s3.37.68,4.6,1.9c2.53,2.53,2.53,6.66,0,9.19L13.6,93.31c-1.23,1.23-2.86,1.9-4.6,1.9Z"/>
      <path class="cls-3" d="M88.71,5c1.02,0,2.05.39,2.83,1.17h0c1.56,1.56,1.56,4.09,0,5.66L11.83,91.54c-.78.78-1.8,1.17-2.83,1.17s-2.05-.39-2.83-1.17h0c-1.56-1.56-1.56-4.09,0-5.66L85.88,6.17c.78-.78,1.8-1.17,2.83-1.17M88.71,0h0c-2.4,0-4.66.94-6.36,2.64L2.64,82.35C.94,84.05,0,86.31,0,88.71c0,2.4.94,4.66,2.64,6.36,1.7,1.7,3.96,2.64,6.36,2.64s4.66-.94,6.36-2.64L95.08,15.36c3.51-3.51,3.51-9.22,0-12.73-1.7-1.7-3.96-2.64-6.36-2.64h0Z"/>
    </g>
  </g>
</svg>
