<?xml version="1.0" encoding="UTF-8"?>
<svg id="Layer_2" data-name="Layer 2" xmlns="http://www.w3.org/2000/svg" viewBox="0 0 100 100">
  <defs>
    <style>
      .cls-1 {
        /* {# rcol(data.color.text) #} */
        fill: #e0def4;
      }
    </style>
  </defs>
  <path class="cls-1" d="M72.58,66.43s-.02-.03-.03-.04l-16.89-16.89,16.89-16.89s.02-.03.03-.04c.01-.01.03-.02.04-.03,1.56-1.56,1.56-4.09,0-5.66L52.83,7.09c-.54-.54-1.19-.88-1.88-1.04-.05-.01-.1-.03-.15-.05-.25-.05-.5-.08-.75-.08-.01,0-.02,0-.04,0-.01,0-.02,0-.03,0-.26,0-.51.03-.76.08-.05.01-.1.03-.15.04-.69.17-1.35.51-1.89,1.05-.79.79-1.18,1.84-1.17,2.87,0,.01,0,.03,0,.04v29.84l-12.89-12.89c-1.56-1.56-4.09-1.56-5.66,0-1.56,1.56-1.56,4.09,0,5.66l16.89,16.89-16.89,16.89c-1.56,1.56-1.56,4.09,0,5.66.78.78,1.8,1.17,2.83,1.17s2.05-.39,2.83-1.17l12.89-12.89v29.84s0,.03,0,.04c-.01,1.04.37,2.08,1.17,2.87.54.54,1.2.88,1.9,1.05.05.01.09.03.14.04.26.05.53.08.79.08h0s0,0,0,0c.27,0,.53-.03.79-.08.05-.01.1-.03.14-.04.69-.17,1.35-.51,1.89-1.05l19.79-19.79c1.56-1.56,1.56-4.1,0-5.66-.01-.01-.03-.02-.04-.03ZM64.14,69.29l-10.14,10.14v-20.27l10.14,10.14ZM54,39.85v-20.27l10.14,10.14-10.14,10.14Z"/>
</svg>
