<?xml version="1.0" encoding="UTF-8"?>
<svg id="Layer_1" data-name="Layer 1" xmlns="http://www.w3.org/2000/svg" viewBox="0 0 95.42 95.42">
  <defs>
    <style>
      .cls-1 {
        /* {# rcol(data.color.text) #} */
        fill: #575279;
      }
    </style>
  </defs>
  <circle class="cls-1" cx="47.71" cy="47.71" r="25"/>
  <path class="cls-1" d="M47.71,18.99c1.93,0,3.5-1.57,3.5-3.5V3.5c0-1.93-1.57-3.5-3.5-3.5s-3.5,1.57-3.5,3.5v11.99c0,1.93,1.57,3.5,3.5,3.5Z"/>
  <path class="cls-1" d="M47.71,76.43c-1.93,0-3.5,1.57-3.5,3.5v11.99c0,1.93,1.57,3.5,3.5,3.5s3.5-1.57,3.5-3.5v-11.99c0-1.93-1.57-3.5-3.5-3.5Z"/>
  <path class="cls-1" d="M18.99,47.79c0-1.93-1.57-3.5-3.5-3.5H3.5c-1.93,0-3.5,1.57-3.5,3.5s1.57,3.5,3.5,3.5h11.99c1.93,0,3.5-1.57,3.5-3.5Z"/>
  <path class="cls-1" d="M91.92,44.29h-11.99c-1.93,0-3.5,1.57-3.5,3.5s1.57,3.5,3.5,3.5h11.99c1.93,0,3.5-1.57,3.5-3.5s-1.57-3.5-3.5-3.5Z"/>
  <path class="cls-1" d="M22.45,27.48c1.37,1.37,3.58,1.37,4.95,0s1.37-3.58,0-4.95l-8.48-8.48c-1.37-1.37-3.58-1.37-4.95,0s-1.37,3.58,0,4.95l8.48,8.48Z"/>
  <path class="cls-1" d="M72.97,68.1c-1.37-1.37-3.58-1.37-4.95,0-1.37,1.37-1.37,3.58,0,4.95l8.48,8.48c1.37,1.37,3.58,1.37,4.95,0s1.37-3.58,0-4.95l-8.48-8.48Z"/>
  <path class="cls-1" d="M22.51,68.16l-8.48,8.48c-1.37,1.37-1.37,3.58,0,4.95s3.58,1.37,4.95,0l8.48-8.48c1.37-1.37,1.37-3.58,0-4.95-1.37-1.37-3.58-1.37-4.95,0Z"/>
  <path class="cls-1" d="M73.03,27.54l8.48-8.48c1.37-1.37,1.37-3.58,0-4.95s-3.58-1.37-4.95,0l-8.48,8.48c-1.37,1.37-1.37,3.58,0,4.95,1.37,1.37,3.58,1.37,4.95,0Z"/>
</svg>
