<?xml version="1.0" encoding="UTF-8"?>
<svg id="Layer_1" data-name="Layer 1" xmlns="http://www.w3.org/2000/svg" viewBox="0 0 85 85">
  <defs>
    <style>
      .cls-1 {
        /* {# rcol(data.color.iris) #} */
        fill: #907aa9;
      }
    </style>
  </defs>
  <rect class="cls-1" x="26.5" y="26.5" width="32" height="32"/>
  <path class="cls-1" d="M77.5,0H7.5C3.36,0,0,3.36,0,7.5v70c0,4.14,3.36,7.5,7.5,7.5h70c4.14,0,7.5-3.36,7.5-7.5V7.5c0-4.14-3.36-7.5-7.5-7.5ZM54.5,8.5c1.1,0,2,.9,2,2s-.9,2-2,2-2-.9-2-2,.9-2,2-2ZM46.5,8.5c1.1,0,2,.9,2,2s-.9,2-2,2-2-.9-2-2,.9-2,2-2ZM38.5,8.5c1.1,0,2,.9,2,2s-.9,2-2,2-2-.9-2-2,.9-2,2-2ZM30.5,8.5c1.1,0,2,.9,2,2s-.9,2-2,2-2-.9-2-2,.9-2,2-2ZM22.5,8.5c1.1,0,2,.9,2,2s-.9,2-2,2-2-.9-2-2,.9-2,2-2ZM10.5,64.5c-1.1,0-2-.9-2-2s.9-2,2-2,2,.9,2,2-.9,2-2,2ZM10.5,56.5c-1.1,0-2-.9-2-2s.9-2,2-2,2,.9,2,2-.9,2-2,2ZM10.5,48.5c-1.1,0-2-.9-2-2s.9-2,2-2,2,.9,2,2-.9,2-2,2ZM10.5,40.5c-1.1,0-2-.9-2-2s.9-2,2-2,2,.9,2,2-.9,2-2,2ZM10.5,32.5c-1.1,0-2-.9-2-2s.9-2,2-2,2,.9,2,2-.9,2-2,2ZM10.5,24.5c-1.1,0-2-.9-2-2s.9-2,2-2,2,.9,2,2-.9,2-2,2ZM22.5,76.5c-1.1,0-2-.9-2-2s.9-2,2-2,2,.9,2,2-.9,2-2,2ZM30.5,76.5c-1.1,0-2-.9-2-2s.9-2,2-2,2,.9,2,2-.9,2-2,2ZM38.5,76.5c-1.1,0-2-.9-2-2s.9-2,2-2,2,.9,2,2-.9,2-2,2ZM46.5,76.5c-1.1,0-2-.9-2-2s.9-2,2-2,2,.9,2,2-.9,2-2,2ZM54.5,76.5c-1.1,0-2-.9-2-2s.9-2,2-2,2,.9,2,2-.9,2-2,2ZM25,62.5c-1.38,0-2.5-1.12-2.5-2.5V25c0-1.38,1.12-2.5,2.5-2.5h35c1.38,0,2.5,1.12,2.5,2.5v35c0,1.38-1.12,2.5-2.5,2.5H25ZM62.5,76.5c-1.1,0-2-.9-2-2s.9-2,2-2,2,.9,2,2-.9,2-2,2ZM62.5,12.5c-1.1,0-2-.9-2-2s.9-2,2-2,2,.9,2,2-.9,2-2,2ZM74.5,64.5c-1.1,0-2-.9-2-2s.9-2,2-2,2,.9,2,2-.9,2-2,2ZM74.5,56.5c-1.1,0-2-.9-2-2s.9-2,2-2,2,.9,2,2-.9,2-2,2ZM74.5,48.5c-1.1,0-2-.9-2-2s.9-2,2-2,2,.9,2,2-.9,2-2,2ZM74.5,40.5c-1.1,0-2-.9-2-2s.9-2,2-2,2,.9,2,2-.9,2-2,2ZM74.5,32.5c-1.1,0-2-.9-2-2s.9-2,2-2,2,.9,2,2-.9,2-2,2ZM74.5,24.5c-1.1,0-2-.9-2-2s.9-2,2-2,2,.9,2,2-.9,2-2,2Z"/>
</svg>
