<?xml version="1.0" encoding="UTF-8"?>
<svg id="Layer_1" data-name="Layer 1" xmlns="http://www.w3.org/2000/svg" viewBox="0 0 68 88.16">
  <defs>
    <style>
      .cls-1 {
        /* {# rcol(data.color.foam) #} */
        fill: #9ccfd8;
      }
    </style>
  </defs>
  <rect class="cls-1" width="68" height="60" rx="7.5" ry="7.5"/>
  <path class="cls-1" d="M7.5,68c-2.72,0-5.28-.71-7.5-1.95v13.1c0,4.95,4.05,9,9,9h50c4.95,0,9-4.05,9-9v-13.1c-2.22,1.24-4.78,1.95-7.5,1.95H7.5ZM11,80.59c-1.93,0-3.5-1.57-3.5-3.51s1.57-3.51,3.5-3.51,3.5,1.57,3.5,3.51-1.57,3.51-3.5,3.51ZM24,80.59c-1.93,0-3.5-1.57-3.5-3.51s1.57-3.51,3.5-3.51,3.5,1.57,3.5,3.51-1.57,3.51-3.5,3.51ZM37,80.59c-1.93,0-3.5-1.57-3.5-3.51s1.57-3.51,3.5-3.51,3.5,1.57,3.5,3.51-1.57,3.51-3.5,3.51ZM57,80.59c-1.93,0-3.5-1.57-3.5-3.51s1.57-3.51,3.5-3.51,3.5,1.57,3.5,3.51-1.57,3.51-3.5,3.51Z"/>
</svg>
