<?xml version="1.0" encoding="UTF-8"?>
<svg id="Layer_1" xmlns="http://www.w3.org/2000/svg" version="1.1" viewBox="0 0 100 100">
  <defs>
    <style>
      .cls-1 {
        /* {# rcol(data.color.text) #} */
        fill: #eceff4;
      }
    </style>
  </defs>
  <rect class="cls-1" x="9.04" y="46.28" width="81.92" height="47.74" rx="7.13" ry="7.13"/>
  <path class="cls-1" d="M50,5.03h0c-17.55,0-31.78,14.23-31.78,31.78v9.01c0,17.55,14.23,31.78,31.78,31.78h0c17.55,0,31.78-14.23,31.78-31.78v-9.01c0-17.55-14.23-31.78-31.78-31.78ZM71.32,51.82c0,7-5.67,12.67-12.67,12.67h-20.09c-5.46,0-9.89-4.43-9.89-9.89v-17.48c0-11.78,9.55-21.32,21.32-21.32h0c11.78,0,21.32,9.55,21.32,21.32v14.7Z"/>
</svg>
