<?xml version="1.0" encoding="UTF-8"?>
<svg id="Layer_1" data-name="Layer 1" xmlns="http://www.w3.org/2000/svg" viewBox="0 0 89.63 80">
  <defs>
    <style>
      .cls-1 {
        /* {# rcol(data.color.text) #} */
        fill: #e0def4;
      }
    </style>
  </defs>
  <path class="cls-1" d="M29.63,40c0-2.21,1.77-4,3.96-4h26.56V5.1c0-2.82-2.28-5.1-5.1-5.1H5C2.24,0,0,2.24,0,5v69.9c0,2.82,2.28,5.1,5.1,5.1h49.94c2.82,0,5.1-2.28,5.1-5.1v-30.9h-26.56c-2.18,0-3.96-1.79-3.96-4Z"/>
  <path class="cls-1" d="M89.55,39.22c-.04-.18-.1-.35-.16-.52-.02-.07-.04-.14-.07-.21-.21-.53-.54-.99-.94-1.38l-13.39-13.39c-1.56-1.56-4.1-1.56-5.66,0-1.56,1.56-1.56,4.09,0,5.66l6.62,6.62h-15.83v8h15.83l-6.62,6.62c-1.56,1.56-1.56,4.09,0,5.66.78.78,1.8,1.17,2.83,1.17s2.05-.39,2.83-1.17l13.39-13.39c.4-.39.73-.85.94-1.38.03-.06.04-.13.06-.2.06-.18.12-.35.16-.54.05-.26.08-.52.08-.78,0,0,0,0,0,0h0c0-.26-.03-.52-.08-.78Z"/>
</svg>
