<?xml version="1.0" encoding="UTF-8"?>
<svg id="Layer_1" data-name="Layer 1" xmlns="http://www.w3.org/2000/svg" viewBox="0 0 90 76.17">
  <defs>
    <style>
      .cls-1 {
        /* {# rcol(data.color.text) #} */
        fill: #eceff4;
      }
    </style>
  </defs>
  <path class="cls-1" d="M62.5,10.58h-2.5c-3.04,0-5.5,2.46-5.5,5.5s2.46,5.5,5.5,5.5h0s2.5,0,2.5,0c9.1,0,16.5,7.4,16.5,16.5s-7.4,16.5-16.5,16.5h-2.5s-2.03,0-2.03,0c.03-2.77.01-5.52-.2-8.2-.36-2.11-2.35-2.81-4.45-2.15-1.72.6-2.96,2.01-4.27,3.28-2.66,2.97-8.12,7.49-9.75,10.63l-.06.14c-1.77,4.78,4.24,8.15,7.28,11.79,3.13,2.77,6.18,8.03,10.41,5.34,1.27-1.16.98-3.47,1.02-7.1,0-.91,0-1.83,0-2.75h4.56c15.12,0,27.5-12.38,27.5-27.5h0c0-15.12-12.38-27.5-27.5-27.5Z"/>
  <path class="cls-1" d="M30,54.59h0s-2.5,0-2.5,0c-9.1,0-16.5-7.4-16.5-16.5s7.4-16.5,16.5-16.5h2.5s1.76,0,1.76,0c0,.92,0,1.84,0,2.75.04,3.62-.25,5.93,1.02,7.1,4.23,2.69,7.27-2.57,10.41-5.34,3.04-3.65,9.05-7.02,7.28-11.79l-.06-.14c-1.63-3.14-7.09-7.67-9.75-10.63-1.31-1.28-2.55-2.68-4.27-3.28-2.1-.66-4.09.04-4.45,2.15-.22,2.67-.23,5.42-.2,8.19h-4.23C12.38,10.58,0,22.96,0,38.08h0c0,15.13,12.38,27.5,27.5,27.5h2.5c3.04,0,5.5-2.46,5.5-5.5s-2.46-5.5-5.5-5.5Z"/>
</svg>
