<?xml version="1.0" encoding="UTF-8"?>
<svg id="Layer_1" data-name="Layer 1" xmlns="http://www.w3.org/2000/svg" viewBox="0 0 100 100">
  <defs>
    <style>
      .cls-1 {
        fill: none;
      }

      .cls-2 {
        /* {# rcol(data.color.text) #} */
        fill: #e0def4;
      }
    </style>
  </defs>
  <path class="cls-2" d="M77.9,24.22c0-3.8-3.08-6.88-6.88-6.88h0l-32.03,5.18h0c-3.8,0-6.88,3.08-6.88,6.88v30.97c-1.41,1.35-2.78,3.1-4.51,3.51-12.37.53-16.84,16.55-2.84,18.54,9.35,1.89,14.42-7.78,14.22-16.29h.01v-24.68l32.03-5.12v20.32c-1.41,1.35-2.78,3.1-4.51,3.51-12.37.53-16.84,16.55-2.84,18.54,9.35,1.89,14.42-7.78,14.22-16.29h.01V24.22ZM24.3,74.72s.02.04.03.06c0,.05-.02,0-.03-.06ZM63.21,71.02s.02.04.03.06c0,.05-.02,0-.03-.06Z"/>
  <rect class="cls-1" width="2.12" height="2.12"/>
  <rect class="cls-1" x="96.88" y="96.88" width="3.12" height="3.12"/>
</svg>
