<?xml version="1.0" encoding="UTF-8"?>
<svg id="Layer_1" data-name="Layer 1" xmlns="http://www.w3.org/2000/svg" viewBox="0 0 92.36 92.36">
  <defs>
    <style>
      .cls-1 {
        /* {# rcol(data.color.text) #} */
        fill: #e0def4;
      }
    </style>
  </defs>
  <path class="cls-1" d="M88.59,3.76c-5.02-5.02-13.15-5.02-18.16,0l-9.87,9.87c-.8.8-.8,2.1,0,2.9l15.27,15.27c.8.8,2.1.8,2.9,0l9.87-9.87c5.02-5.02,5.02-13.15,0-18.16Z"/>
  <rect class="cls-1" x="50.94" y="14.91" width="17" height="36" rx="3" ry="3" transform="translate(-5.86 51.67) rotate(-45)"/>
  <path class="cls-1" d="M45.07,35.97c-1.17-1.17-3.07-1.17-4.24,0L5.47,71.32c-1.17,1.17-1.17,3.07,0,4.24l1.77,1.77-6.36,6.36c-1.17,1.17-1.17,3.07,0,4.24l3.54,3.54c1.17,1.17,3.07,1.17,4.24,0l6.36-6.36,1.77,1.77c1.17,1.17,3.07,1.17,4.24,0l35.36-35.36c1.17-1.17,1.17-3.07,0-4.24l-11.31-11.31Z"/>
</svg>
