<?xml version="1.0" encoding="UTF-8"?>
<svg id="Layer_1" data-name="Layer 1" xmlns="http://www.w3.org/2000/svg" viewBox="0 0 81.7 81.91">
  <defs>
    <style>
      .cls-1 {
        /* {# rcol(data.color.text) #} */
        fill: #e0def4;
      }
    </style>
  </defs>
  <path class="cls-1" d="M19.35,41.01c-.54,4.04,6.97,10.3,12.64,14.23,5.69,4.08,12.76,8.83,19.37,13.36,5.51,3.75,10.65,7.25,14.85,9.7,4.82,2.55,9.83,5.81,12.94,1.57,2.33-4.14,2.15-10.02,2.41-15.08.21-13.28.09-29.36.08-42.72-.32-6.55.47-14.64-2.61-20.19-3.14-4.03-8.24-.73-13.34,2.04-4.56,2.7-10.19,6.57-16.13,10.62-6.46,4.43-13.18,8.94-18.53,12.83-5.35,3.76-12.18,9.65-11.7,13.54v.11Z"/>
  <rect class="cls-1" width="13.58" height="81.91" rx="5.54" ry="5.54"/>
</svg>
