<?xml version="1.0" encoding="UTF-8"?>
<svg id="Layer_1" data-name="Layer 1" xmlns="http://www.w3.org/2000/svg" viewBox="0 0 70.34 93.83">
  <defs>
    <style>
      .cls-1 {
        /* {# rcol(data.color.gold) #} */
        fill: #f6c177;
      }
    </style>
  </defs>
  <path class="cls-1" d="M68.84,38.33c1.94.02,1.94-3.02,0-3,0,0-2.5,0-2.5,0v-3.53c1.24-.08,4.04.51,4-1.5.05-2.09-3.03-1.39-4.29-1.5-.77-2.37-3.36-3.24-5.71-2.97v-4.14c1.46-.61,2.5-2.05,2.5-3.72V4.03c0-2.22-1.81-4.03-4.03-4.03H11.87c-2.22,0-4.03,1.81-4.03,4.03v13.94c0,1.67,1.04,3.12,2.5,3.72v4.14c-2.19-.23-4.64.45-5.55,2.58C3.44,28.51,0,27.66,0,29.88c-.05,2.11,3.08,1.38,4.34,1.5v3.53c-1.26.12-4.38-.61-4.34,1.5-.05,2.11,3.08,1.38,4.34,1.5v3.53c-1.26.12-4.38-.61-4.34,1.5-.05,2.11,3.08,1.38,4.34,1.5v3.53c-1.26.12-4.38-.61-4.34,1.5-.05,2.11,3.08,1.38,4.34,1.5v3.53c-1.26.12-4.38-.61-4.34,1.5-.05,2.11,3.08,1.38,4.34,1.5v3.53c-1.26.12-4.38-.61-4.34,1.5-.05,2.13,3.15,1.37,4.41,1.5.39,2.85,3.26,4.16,5.93,3.8v4.31c-1.46.61-2.5,2.05-2.5,3.72v13.94c0,2.22,1.81,4.03,4.03,4.03h46.94c2.22,0,4.03-1.81,4.03-4.03v-13.94c0-1.67-1.04-3.12-2.5-3.72v-4.31c2.51.31,5.24-.77,5.84-3.38,1.25-.1,4.2.56,4.16-1.5.04-2.01-2.76-1.43-4-1.5v-3.53c1.24-.08,4.04.51,4-1.5.04-2.01-2.76-1.43-4-1.5v-3.53c1.24-.08,4.04.51,4-1.5.04-2.01-2.76-1.43-4-1.5v-3.53c1.24-.08,4.04.51,4-1.5.04-2.01-2.76-1.43-4-1.5v-3.53h2.5Z"/>
</svg>
