<?xml version="1.0" encoding="UTF-8"?>
<svg id="Layer_2" xmlns="http://www.w3.org/2000/svg" version="1.1" viewBox="0 0 100 100">
  <!-- Generator: Adobe Illustrator 29.3.0, SVG Export Plug-In . SVG Version: 2.1.0 Build 146)  -->
  <defs>
    <style>
      .st0 {
        /* {# rcol(data.color.text) #} */
        fill: #575279;
      }
    </style>
  </defs>
  <path class="st0" d="M47.23,11.28C28.05,12.6,12.49,28.12,11.13,47.31c-.98,13.84,5.28,26.28,15.37,33.92l5.64-7.46c-7.5-5.68-12.21-14.84-11.72-25.08.72-14.92,12.77-27.16,27.67-28.1,17.22-1.08,31.53,12.57,31.53,29.56,0,14.99-11.14,27.39-25.6,29.35-2.28.31-4.02,2.19-4.02,4.5v.3c0,2.75,2.44,4.85,5.17,4.49,19.08-2.53,33.8-18.86,33.8-38.63,0-22.44-18.96-40.44-41.74-38.87Z"/>
  <path class="st0" d="M29.95,63.76l-10.95,18.97c-1.03,1.78.26,4,2.31,4h21.91c2.05,0,3.34-2.22,2.31-4l-10.95-18.97c-1.03-1.78-3.59-1.78-4.62,0Z"/>
</svg>
