<?xml version="1.0" encoding="UTF-8"?>
<svg id="Layer_1" data-name="Layer 1" xmlns="http://www.w3.org/2000/svg" viewBox="0 0 89.66 90.01">
  <defs>
    <style>
      .cls-1 {
        /* {# rcol(data.color.text) #} */
        fill: #c6d0f5;
      }
    </style>
  </defs>
  <path class="cls-1" d="M89.46,50.86c.04-.27.17-.6.17-.88.05-3.19.03-5.21.03-8.61-.02-1.11.12-2.6-1.16-3.01-1.52-.46-5.3-1.22-7.22-1.71-1.97-.34-2.48-2.42-3.17-4.01-.67-1.83-1.83-3.96-2.21-5.74-.17-1.12.48-1.98,1.06-2.94.76-1.22,1.75-2.81,2.51-4.03.74-1.17,1.2-1.88.9-2.59-.91-1.6-2.81-2.98-3.95-4.25-1.18-1.02-2.78-3.11-4.41-4-1.13-.38-2.36.89-3.48,1.5-1.71.92-3.27,2.53-5.19,2.85-1.38,0-2.92-.92-4.33-1.43-1.53-.71-3.6-1.31-4.89-2.2-1.53-1.41-1.34-3.84-1.95-5.75-.47-1.63-.33-3.97-2.37-4-3.11-.09-5.15-.03-8.41-.05-.77-.04-1.95-.01-2.56.32-.44.26-.64.72-.77,1.21-.57,1.86-1,5.64-1.92,7.59-.88,1.29-2.72,1.63-4.2,2.34-1.68.6-3.71,1.75-5.34,1.97-1.2.05-1.85-.55-3.02-1.26-1.48-.93-3.33-2.16-4.42-2.81-.44-.26-.9-.44-1.4-.31-.81.28-1.55,1.09-2.18,1.71-2.07,2.03-3.19,3.16-5.31,5.26-.5.52-.97,1.01-1.08,1.7.04,1.18,1.29,2.53,1.95,3.76.88,1.72,2.49,3.19,2.63,5.12-.49,2.62-2.19,5.71-3.21,8.29-.75,1.74-2.45,1.8-4.24,2.24-2.05.53-4.07.8-5.46,1.36-.6.27-.77.95-.83,1.55-.1,1.54-.02,3.49-.04,4.9.03,1.38-.09,3.7.09,5.38.12.43.23.91.67,1.15,1.76.76,4.24,1.03,6.32,1.6,1.6.28,2.95.74,3.49,2.07.95,2.04,1.67,3.99,2.53,5.98.6,1.43,1,2.48.34,3.69-.71,1.3-1.63,2.65-2.43,3.98-.65,1.22-1.89,2.47-1.79,3.65.12.43.37.83.68,1.16,2.13,2.17,3.54,3.54,5.69,5.67.99.96,2.17,2.42,3.58,1.4,1.78-.93,4.73-3.39,6.84-4.04,1.72-.16,3.45,1.04,5.12,1.6,1.54.73,3.57,1.2,4.74,2.31,1.32,1.98,1.51,5.93,2.2,7.96.16.83.77,1.42,1.62,1.47,3.28.14,5.71.03,8.98.06.79,0,1.58.01,2.26-.39.4-.28.59-.78.76-1.52.6-2.23.89-4.92,1.74-7.08,1.18-1.76,3.86-2.1,5.74-3.08,2.8-1.16,4.24-2.21,6.88-.1,1.48.93,3.33,2.16,4.42,2.81.7.47,1.54.47,2.18-.1,2.52-2.29,4.24-4.14,6.71-6.55,1.19-1.16,1.46-1.97.34-3.52-1.03-1.66-2.31-3.68-3.32-5.35-1.23-1.84.1-3.66.82-5.59.87-1.77,1.31-3.94,2.61-5.44.35-.34.8-.53,1.28-.68,1.74-.45,5.35-1.22,7.08-1.65.51-.13,1-.31,1.23-.79l.05-.12ZM44.73,59.62c-10.2.16-17.54-11.08-13.35-20.34,6.24-14.3,27.51-10.24,28.05,5.31.33,8.06-6.45,15.06-14.5,15.03h-.2Z"/>
</svg>
