<?xml version="1.0" encoding="UTF-8"?>
<svg id="Layer_1" data-name="Layer 1" xmlns="http://www.w3.org/2000/svg" viewBox="0 0 89.46 79.04">
  <defs>
    <style>
      .cls-1 {
        /* {# rcol(data.color.foam) #} */
        fill: #9ccfd8;
      }
    </style>
  </defs>
  <path class="cls-1" d="M51.87,34.71c.41-.59.83-1.18,1.26-1.76.19-.25.38-.5.57-.75.11-.14.46-.57.5-.62,1.99-2.47,4.19-4.69,6.57-6.77.04-.04.08-.07.11-.1.01,0,.02-.01.03-.02.41-.27.8-.57,1.21-.82.36-.22.73-.4,1.09-.62.09-.05.14-.09.19-.12.05-.02.12-.03.2-.06.23-.07.47-.14.7-.21-.01,2.74.06,5.46.49,7.98,1.35,6.35,8.66-.76,11.96-2.7,3.45-2.8,12.58-7.44,12.7-11.38v-.09c-.23-3.98-8.6-8.13-12.07-10.94-2.74-1.54-10.25-8.71-12.21-4.3-.94,1.89-.84,6.84-.82,11.17-1.85.36-3.67.87-5.41,1.66-3,1.36-5.6,3.63-7.93,5.93-2.4,2.37-4.51,5.01-6.51,7.72-.74,1-1.45,2.02-2.15,3.05-1.36-2.08-2.76-4.13-4.27-6.11-4.03-5.29-8.66-10.13-14.52-13.4-6.15-3.43-12.97-4.86-19.93-3.7C.86,8.2-.42,11.48.12,13.9c.64,2.82,3.58,3.92,6.15,3.49.05,0,.08-.01.12-.02.19-.02.38-.04.57-.05.4-.03.81-.05,1.21-.05.81-.01,1.61.05,2.42.1.06,0,.1,0,.14,0,.04,0,.08.02.14.03.4.08.8.15,1.19.23.8.18,1.58.39,2.36.64.39.13.78.26,1.16.4.08.03.43.18.63.26.65.3,1.3.6,1.93.94,1.36.74,2.65,1.58,3.9,2.49.17.14.61.47.71.56.27.22.53.45.79.68.54.48,1.06.97,1.57,1.47,1.13,1.1,2.19,2.27,3.21,3.47.28.33.55.66.82,1,.05.06.34.43.47.6.37.49.74.98,1.1,1.48.89,1.23,1.74,2.48,2.58,3.74,1.06,1.6,2.08,3.22,3.1,4.84-.73,1.16-1.47,2.31-2.22,3.45-.84,1.26-1.69,2.52-2.58,3.74-.36.5-.73.99-1.1,1.48-.13.17-.43.54-.47.6-.27.33-.55.67-.82,1-1.02,1.21-2.08,2.37-3.21,3.47-.51.5-1.04.99-1.57,1.47-.26.23-.53.46-.79.68-.1.09-.54.42-.71.56-1.25.91-2.54,1.76-3.9,2.49-.63.34-1.28.64-1.93.94-.2.08-.54.23-.63.26-.38.14-.77.28-1.16.4-.78.25-1.56.47-2.36.64-.4.09-.8.15-1.19.23-.05.01-.09.02-.14.03-.04,0-.08,0-.14,0-.81.05-1.61.11-2.42.1-.4,0-.81-.02-1.21-.05-.19-.01-.38-.03-.57-.05-.04,0-.07-.01-.12-.02-2.57-.43-5.51.67-6.15,3.49-.55,2.41.73,5.69,3.49,6.15,6.96,1.15,13.78-.27,19.93-3.7,5.86-3.27,10.49-8.12,14.52-13.4,1.19-1.57,2.32-3.18,3.41-4.81.42.59.84,1.18,1.27,1.76,2,2.71,4.11,5.35,6.51,7.72,2.32,2.3,4.93,4.57,7.93,5.93,1.75.79,3.56,1.31,5.41,1.66-.02,4.33-.12,9.27.82,11.17,1.96,4.41,9.47-2.76,12.21-4.3,3.47-2.81,11.85-6.96,12.07-10.94v-.09c-.12-3.95-9.26-8.58-12.7-11.38-3.3-1.94-10.61-9.05-11.96-2.7-.43,2.52-.5,5.24-.49,7.98-.23-.07-.47-.14-.7-.21-.08-.03-.14-.04-.2-.06-.04-.03-.1-.07-.19-.12-.36-.22-.74-.4-1.09-.62-.42-.26-.81-.55-1.21-.82-.01,0-.02-.01-.03-.02-.03-.03-.07-.06-.11-.1-2.39-2.08-4.58-4.3-6.57-6.77-.04-.05-.39-.49-.5-.62-.19-.25-.38-.5-.57-.75-.43-.58-.85-1.17-1.26-1.76-.87-1.24-1.71-2.5-2.54-3.78-.08-.12-.15-.24-.23-.36.37-.57.73-1.15,1.1-1.72.83-1.27,1.67-2.53,2.54-3.78Z"/>
</svg>
