<?xml version="1.0" encoding="UTF-8"?>
<svg id="Layer_1" xmlns="http://www.w3.org/2000/svg" version="1.1" viewBox="0 0 100 100">
  <!-- Generator: Adobe Illustrator 29.3.0, SVG Export Plug-In . SVG Version: 2.1.0 Build 146)  -->
  <defs>
    <style>
      .st0 {
        /* {# rcol(data.color.text) #} */
        fill: #575279;
      }
    </style>
  </defs>
  <path class="st0" d="M56.65,21.9h0c0,2.2,1.37,4.17,3.43,4.94,11.22,4.21,19.11,15.23,18.61,28.02-.56,14.56-12.26,26.58-26.81,27.51-16.71,1.07-30.59-12.17-30.59-28.65,0-12.3,7.74-22.78,18.6-26.87,2.07-.78,3.46-2.74,3.46-4.95h0c0-3.65-3.62-6.26-7.04-4.99-15.39,5.72-26.22,20.8-25.56,38.33.75,19.87,16.61,36.29,36.44,37.66,22.96,1.59,42.08-16.56,42.08-39.18,0-16.86-10.62-31.23-25.54-36.8-3.43-1.28-7.09,1.31-7.09,4.98Z"/>
  <rect class="st0" x="44.33" y="7" width="11.35" height="41.14" rx="5.67" ry="5.67"/>
</svg>
