<?xml version="1.0" encoding="UTF-8"?>
<svg id="Layer_1" data-name="Layer 1" xmlns="http://www.w3.org/2000/svg" viewBox="0 0 75 90">
  <defs>
    <style>
      .cls-1 {
        /* {# rcol(data.color.text) #} */
        fill: #c6d0f5;
      }
    </style>
  </defs>
  <path class="cls-1" d="M65,0H10C4.48,0,0,4.48,0,10v17.5h75V10c0-5.52-4.48-10-10-10ZM49.87,14.48c-.58,3.17-3.37,5.6-6.7,5.6h-11.34c-3.33,0-6.12-2.43-6.7-5.6-.05-.17-.08-.35-.08-.53,0-1.12.91-2.03,2.03-2.03s2.03.91,2.03,2.03h0c.31,1.22,1.41,2.13,2.72,2.13h11.34c1.32,0,2.41-.91,2.72-2.13h0c0-1.12.91-2.03,2.03-2.03s2.03.91,2.03,2.03c0,.18-.03.36-.08.53Z"/>
  <path class="cls-1" d="M0,57.5h75v-25H0v25ZM27.08,42.92c1.12,0,2.03.91,2.03,2.03h0c.31,1.22,1.41,2.13,2.72,2.13h11.34c1.32,0,2.41-.91,2.72-2.13h0c0-1.12.91-2.03,2.03-2.03s2.03.91,2.03,2.03c0,.18-.03.36-.08.53-.58,3.17-3.37,5.6-6.7,5.6h-11.34c-3.33,0-6.12-2.43-6.7-5.6-.05-.17-.08-.35-.08-.53,0-1.12.91-2.03,2.03-2.03Z"/>
  <path class="cls-1" d="M0,80c0,5.52,4.48,10,10,10h55c5.52,0,10-4.48,10-10v-17.5H0v17.5ZM27.08,72.92c1.12,0,2.03.91,2.03,2.03h0c.31,1.22,1.41,2.13,2.72,2.13h11.34c1.32,0,2.41-.91,2.72-2.13h0c0-1.12.91-2.03,2.03-2.03s2.03.91,2.03,2.03c0,.18-.03.36-.08.53-.58,3.17-3.37,5.6-6.7,5.6h-11.34c-3.33,0-6.12-2.43-6.7-5.6-.05-.17-.08-.35-.08-.53,0-1.12.91-2.03,2.03-2.03Z"/>
</svg>
