<?xml version="1.0" encoding="UTF-8"?>
<svg id="Layer_1" xmlns="http://www.w3.org/2000/svg" version="1.1" viewBox="0 0 100 100">
  <!-- Generator: Adobe Illustrator 29.3.0, SVG Export Plug-In . SVG Version: 2.1.0 Build 146)  -->
  <defs>
    <style>
      .st0 {
        /* {# rcol(data.color.text) #} */
        fill: #e0def4;
      }
    </style>
  </defs>
  <path class="st0" d="M57.15,64.29v18.81c0,1.75-1.42,3.16-3.16,3.16h-28.23c-1.75,0-3.16-1.42-3.16-3.16V16.9c0-1.75,1.42-3.16,3.16-3.16h28.23c1.75,0,3.16,1.42,3.16,3.16v18.81c0,2.17,1.76,3.92,3.92,3.92h0c2.17,0,3.92-1.76,3.92-3.92V11.74c0-3.24-2.63-5.87-5.87-5.87H20.62c-3.24,0-5.87,2.63-5.87,5.87v76.52c0,3.24,2.63,5.87,5.87,5.87h38.49c3.24,0,5.87-2.63,5.87-5.87v-23.96c0-2.17-1.76-3.92-3.92-3.92h0c-2.17,0-3.92,1.76-3.92,3.92Z"/>
  <path class="st0" d="M71.67,60.1l11.62-6.71c2.61-1.51,2.61-5.28,0-6.79l-11.62-6.71c-2.61-1.51-5.88.38-5.88,3.4v3.02h-13.26c-2.17,0-3.92,1.76-3.92,3.92h0c0,2.17,1.76,3.92,3.92,3.92h13.26v2.56c0,3.02,3.27,4.9,5.88,3.4Z"/>
</svg>
