<?xml version="1.0" encoding="UTF-8"?>
<svg id="Layer_2" data-name="Layer 2" xmlns="http://www.w3.org/2000/svg" viewBox="0 0 90.49 88.71">
  <defs>
    <style>
      .cls-1 {
        /* {# rcol(data.color.text) #} */
        fill: #575279;
      }
    </style>
  </defs>
  <circle class="cls-1" cx="45.22" cy="74.57" r="8.64"/>
  <path class="cls-1" d="M1.49,30.57l-.04-.03c-1.85-1.53-1.94-4.32-.2-5.96C7.39,18.8,22.4,7.36,45.06,7.36c.23,0,.46,0,.69,0,22.94.24,37.54,11.47,43.52,17.22,1.73,1.67,1.59,4.48-.29,5.97l-.05.04c-1.55,1.23-3.77,1.14-5.2-.22-5.03-4.77-17.96-14.81-38.05-15.01-.2,0-.4,0-.6,0-19.91,0-33.18,10.23-38.34,15.07-1.46,1.37-3.7,1.42-5.24.15Z"/>
  <path class="cls-1" d="M14.24,45.66l-.03-.02c-1.89-1.57-1.92-4.43-.08-6.06,5-4.41,15.58-11.69,30.98-11.69.17,0,.33,0,.5,0,15.56.16,25.88,7.29,30.77,11.68,1.84,1.65,1.75,4.54-.18,6.08l-.02.02c-1.53,1.21-3.69,1.14-5.14-.17-3.85-3.47-12.39-9.47-25.5-9.61-13.16-.13-22.1,6.11-26.12,9.68-1.47,1.3-3.67,1.34-5.18.09Z"/>
  <path class="cls-1" d="M27.23,61.23h0c-1.96-1.62-1.93-4.65.08-6.2,3.53-2.71,9.59-6.1,17.87-6.1.1,0,.21,0,.31,0,8.26.08,14.18,3.35,17.65,6.02,2.06,1.59,2.11,4.67.08,6.29h-.02c-1.45,1.17-3.48,1.14-4.95.02-2.41-1.86-6.71-4.26-12.84-4.33-.08,0-.15,0-.23,0-6.11,0-10.53,2.52-13,4.42-1.46,1.13-3.53,1.05-4.95-.12Z"/>
</svg>
