<?xml version="1.0" encoding="UTF-8"?>
<svg id="Layer_2" data-name="Layer 2" xmlns="http://www.w3.org/2000/svg" viewBox="0 0 97.71 97.71">
  <defs>
    <style>
      .cls-1 {
        stroke: #232136;
        stroke-miterlimit: 10;
        stroke-width: 5px;
      }

      .cls-1, .cls-2 {
        /* {# rcol(data.color.text) #} */
        fill: #575279;
      }

      .cls-3 {
        /* {# rcol(data.color.surface) #} */
        fill: #fffaf3;
      }
    </style>
  </defs>
  <circle class="cls-2" cx="48.86" cy="79.07" r="8.64"/>
  <path class="cls-2" d="M5.12,35.07l-.04-.03c-1.85-1.53-1.94-4.32-.2-5.96,6.14-5.78,21.15-17.22,43.81-17.22.23,0,.46,0,.69,0,22.94.24,37.54,11.47,43.52,17.22,1.73,1.67,1.59,4.48-.29,5.97l-.05.04c-1.55,1.23-3.77,1.14-5.2-.22-5.03-4.77-17.96-14.81-38.05-15.01-.2,0-.4,0-.6,0-19.91,0-33.18,10.23-38.34,15.07-1.46,1.37-3.7,1.42-5.24.15Z"/>
  <path class="cls-2" d="M17.87,50.16l-.03-.02c-1.89-1.57-1.92-4.43-.08-6.06,5-4.41,15.58-11.69,30.98-11.69.17,0,.33,0,.5,0,15.56.16,25.88,7.29,30.77,11.68,1.84,1.65,1.75,4.54-.18,6.08l-.02.02c-1.53,1.21-3.69,1.14-5.14-.17-3.85-3.47-12.39-9.47-25.5-9.61-13.16-.13-22.1,6.11-26.12,9.68-1.47,1.3-3.67,1.34-5.18.09Z"/>
  <path class="cls-2" d="M30.86,65.73h0c-1.96-1.62-1.93-4.65.08-6.2,3.53-2.71,9.59-6.1,17.87-6.1.1,0,.21,0,.31,0,8.26.08,14.18,3.35,17.65,6.02,2.06,1.59,2.11,4.67.08,6.29h-.02c-1.45,1.17-3.48,1.14-4.95.02-2.41-1.86-6.71-4.26-12.84-4.33-.08,0-.15,0-.23,0-6.11,0-10.53,2.52-13,4.42-1.46,1.13-3.53,1.05-4.95-.12Z"/>
  <g>
    <line class="cls-1" x1="6.17" y1="91.54" x2="91.54" y2="6.17"/>
    <g>
      <path class="cls-2" d="M9,95.21c-1.74,0-3.37-.68-4.6-1.9-1.23-1.23-1.9-2.86-1.9-4.6s.68-3.37,1.9-4.6L84.12,4.4c1.23-1.23,2.86-1.9,4.6-1.9s3.37.68,4.6,1.9c2.53,2.53,2.53,6.66,0,9.19L13.6,93.31c-1.23,1.23-2.86,1.9-4.6,1.9Z"/>
      <path class="cls-3" d="M88.71,5c1.02,0,2.05.39,2.83,1.17h0c1.56,1.56,1.56,4.09,0,5.66L11.83,91.54c-.78.78-1.8,1.17-2.83,1.17s-2.05-.39-2.83-1.17h0c-1.56-1.56-1.56-4.09,0-5.66L85.88,6.17c.78-.78,1.8-1.17,2.83-1.17M88.71,0h0c-2.4,0-4.66.94-6.36,2.64L2.64,82.35C.94,84.05,0,86.31,0,88.71c0,2.4.94,4.66,2.64,6.36,1.7,1.7,3.96,2.64,6.36,2.64s4.66-.94,6.36-2.64L95.08,15.36c3.51-3.51,3.51-9.22,0-12.73-1.7-1.7-3.96-2.64-6.36-2.64h0Z"/>
    </g>
  </g>
</svg>
