<?xml version="1.0" encoding="UTF-8"?>
<svg id="nubes" xmlns="http://www.w3.org/2000/svg" xmlns:xlink="http://www.w3.org/1999/xlink" viewBox="0 0 1920.1 1080.06">
  <defs>
    <style>
      .cls-1 {
        /* {# rcol(data.color.text) #} */
        fill: #575279;
      }

      .cls-2 {
        /* {# rcol(data.color.iris) #} */
        fill: #907aa9;
        opacity: .26;
      }

      .cls-3 {
        fill: url(#linear-gradient);
      }
    </style>
    <linearGradient id="linear-gradient" x1="956.38" y1="-446.37" x2="956.38" y2="1525.49" gradientUnits="userSpaceOnUse">
      <!-- {# rcol(data.color.iris) #} -->
      <stop offset=".2" stop-color="#907aa9"/>
      <!-- {# rcol(data.color.gold) #} -->
      <stop offset=".5" stop-color="#ea9d34"/>
      <!-- {# rcol(data.color.rose) #} -->
      <stop offset=".6" stop-color="#d7827e"/>
    </linearGradient>
  </defs>
  <rect class="cls-3" x="-29.55" y="-127.05" width="1971.86" height="1233.71"/>
  <path class="cls-2" d="M1527.93-492.67h0c-38.62-38.62-101.24-38.62-139.86,0l-110.78,110.78c-4.59-8.99-10.63-17.44-18.16-24.96h0c-38.62-38.62-101.24-38.62-139.86,0L768.97-56.55c-38.62,38.62-38.62,101.24,0,139.86h0c38.62,38.62,101.24,38.62,139.86,0l110.78-110.78c4.59,8.99,10.63,17.44,18.16,24.96h0c38.62,38.62,101.24,38.62,139.86,0l350.31-350.31c38.62-38.62,38.62-101.24,0-139.86Z"/>
  <path class="cls-2" d="M308.31-29.85h0c-30.66-30.66-80.37-30.66-111.03,0L-181.86,349.29c-30.66,30.66-30.66,80.37,0,111.03h0c10.27,10.27,22.69,17.09,35.8,20.47l-85.02,85.02c-30.66,30.66-30.66,80.37,0,111.03h0c30.66,30.66,80.37,30.66,111.03,0l379.13-379.13c30.66-30.66,30.66-80.37,0-111.03h0c-10.27-10.27-22.69-17.09-35.8-20.47l85.02-85.02c30.66-30.66,30.66-80.37,0-111.03Z"/>
  <path class="cls-2" d="M1410.86,298.01h0c-30.66-30.66-80.37-30.66-111.03,0l-379.13,379.13c-30.66,30.66-30.66,80.37,0,111.03h0c10.27,10.27,22.69,17.09,35.8,20.47l-85.02,85.02c-30.66,30.66-30.66,80.37,0,111.03h0c30.66,30.66,80.37,30.66,111.03,0l379.13-379.13c30.66-30.66,30.66-80.37,0-111.03h0c-10.27-10.27-22.69-17.09-35.8-20.47l85.02-85.02c30.66-30.66,30.66-80.37,0-111.03Z"/>
  <path class="cls-2" d="M2119.27,608.6h0c-30.66-30.66-80.37-30.66-111.03,0l-379.13,379.13c-30.66,30.66-30.66,80.37,0,111.03h0c10.27,10.27,22.69,17.09,35.8,20.47l-85.02,85.02c-30.66,30.66-30.66,80.37,0,111.03h0c30.66,30.66,80.37,30.66,111.03,0l379.13-379.13c30.66-30.66,30.66-80.37,0-111.03h0c-10.27-10.27-22.69-17.09-35.8-20.47l85.02-85.02c30.66-30.66,30.66-80.37,0-111.03Z"/>
  <path class="cls-1" d="M1049.54,380.44h0c-36.14-36.14-87.01-48.58-133.29-37.31,8.62-49.42-6.15-102.12-44.31-140.29h0c-62.27-62.27-163.23-62.27-225.5,0l-165.66,165.66c-62.27,62.27-62.27,163.23,0,225.5h0c38.17,38.17,90.87,52.93,140.29,44.31-11.26,46.28,1.17,97.15,37.31,133.29h0c55.11,55.11,144.45,55.11,199.56,0l191.61-191.61c55.11-55.11,55.11-144.45,0-199.56Z"/>
  <rect class="cls-1" x="1370.7" y="272.72" width="693.2" height="282.22" rx="141.11" ry="141.11" transform="translate(210.36 1335.52) rotate(-45)"/>
  <rect class="cls-1" x="-332.59" y="-302.74" width="693.2" height="282.22" rx="130.86" ry="130.86" transform="translate(118.39 -37.43) rotate(-45)"/>
  <rect class="cls-1" x="794.57" y="938.95" width="693.2" height="282.22" rx="141.11" ry="141.11" transform="translate(-429.48 1123.27) rotate(-45)"/>
  <rect class="cls-1" x="947.04" y="1173" width="693.2" height="282.22" rx="141.11" ry="141.11" transform="translate(-550.32 1299.63) rotate(-45)"/>
  <rect class="cls-1" x="-346.6" y="744.74" width="693.2" height="282.22" rx="141.11" ry="141.11" transform="translate(-626.39 259.46) rotate(-45)"/>
  <rect class="cls-1" x="-60.19" y="845.14" width="693.2" height="282.22" rx="141.11" ry="141.11" transform="translate(-613.5 491.39) rotate(-45)"/>
  <path class="cls-1" d="M2169.96-427.18h0c-55.11-55.11-144.45-55.11-199.56,0l-94.97,94.97c-6.75-19.74-17.99-38.28-33.73-54.02h0c-55.11-55.11-144.45-55.11-199.56,0l-290.6,290.6c-55.11,55.11-55.11,144.45,0,199.56h0c55.11,55.11,144.45,55.11,199.56,0l94.97-94.97c6.75,19.74,17.99,38.28,33.73,54.02h0c55.11,55.11,144.45,55.11,199.56,0l290.6-290.6c55.11-55.11,55.11-144.45,0-199.56Z"/>
</svg>
